<svg width="145" height="35" viewBox="0 0 145 35" fill="none" xmlns="http://www.w3.org/2000/svg">
<path d="M41.9333 0.827751L34.7556 19.8262H38.5736L39.9994 15.7549H47.4748L48.9005 19.8262H52.8107L45.6119 0.827751H41.9333ZM41.1992 12.417L43.7522 5.14256L46.3052 12.417H41.1992Z" fill="#000010"/>
<path d="M109.114 12.3622L101.11 0.827751H98.0286V19.8262H101.708V8.29085L109.736 19.8262H112.794V0.827751H109.114V12.3622Z" fill="#000010"/>
<path d="M56.1435 4.41011H61.2951V19.8262H65.021V4.41011H70.1734V0.827751H56.1435V4.41011Z" fill="#000010"/>
<path d="M124.449 0.827751H120.723V19.8262H124.449V0.827751Z" fill="#000010"/>
<path d="M135.627 6.20129C135.627 5.00685 136.478 4.02993 138.686 4.02993C140.112 4.02993 141.653 4.51887 143.149 5.52274L144.298 2.18485C142.804 1.07222 140.733 0.501465 138.709 0.501465C134.132 0.501465 131.924 3.18872 131.924 6.41881C131.924 13.4748 141.286 11.032 141.286 14.5884C141.286 15.7549 140.388 16.6231 138.18 16.6231C136.248 16.6231 134.225 15.8098 132.867 14.6423L131.602 17.9532C133.028 19.2564 135.604 20.1515 138.157 20.1515C142.757 20.1515 144.989 17.4373 144.989 14.2621C144.989 7.28697 135.627 9.70281 135.627 6.20129Z" fill="#000010"/>
<path d="M83.444 0.501465C78.3609 0.501465 74.635 4.68153 74.635 10.3265C74.635 15.9715 78.3609 20.1496 83.444 20.1496C88.501 20.1496 92.253 15.9975 92.253 10.3246C92.253 4.6517 88.5043 0.501465 83.444 0.501465ZM83.444 16.4065C80.5689 16.4065 78.4074 13.9368 78.4074 10.3265C78.4074 6.71622 80.5689 4.24745 83.444 4.24745C86.3192 4.24745 88.4815 6.71718 88.4815 10.3265C88.4815 13.9358 86.3233 16.4065 83.444 16.4065Z" fill="#000010"/>
<path d="M48.4935 31.6686H45.5784L44.9504 33.3173H44.3753L46.7644 27.143H47.31L49.7023 33.3173H49.1191L48.4935 31.6686ZM48.2921 31.1392L47.036 27.8225L45.7807 31.1392H48.2921Z" fill="#000010"/>
<path d="M61.0627 33.3173L59.8661 31.3327C59.7272 31.3513 59.5875 31.3603 59.4477 31.3596H58.0423V33.3173H57.4893V27.143H59.4469C60.7772 27.143 61.5847 27.9371 61.5847 29.2605C61.5847 30.2307 61.1516 30.9092 60.3889 31.2008L61.667 33.3183L61.0627 33.3173ZM61.0325 29.2605C61.0325 28.272 60.4795 27.708 59.433 27.708H58.0423V30.8043H59.433C60.4795 30.8043 61.0325 30.2307 61.0325 29.2605Z" fill="#000010"/>
<path d="M71.0796 27.708H69.2403V27.143H73.4711V27.708H71.6326V33.3173H71.0796V27.708Z" fill="#000010"/>
<path d="M84.2996 30.4953H82.9089V32.1008H82.4383V30.4953H81.0517V29.9746H82.4383V28.3606H82.9089V29.9746H84.2996V30.4953Z" fill="#000010"/>
<path d="M94.0042 27.708H92.1649V27.143H96.3957V27.708H94.5613V33.3173H94.0083L94.0042 27.708Z" fill="#000010"/>
<path d="M108.956 32.7581V33.3222H105.256V27.143H108.845V27.708H105.809V29.9044H108.515V30.4597H105.809V32.7581H108.956Z" fill="#000010"/>
<path d="M117.415 30.2307C117.415 28.4222 118.581 27.0901 120.158 27.0901C120.921 27.0901 121.608 27.3904 122.071 27.99L121.721 28.4048C121.294 27.8928 120.771 27.6724 120.171 27.6724C118.908 27.6724 117.958 28.7667 117.958 30.2307C117.958 31.6946 118.908 32.7889 120.171 32.7889C120.769 32.7889 121.292 32.5676 121.721 32.0478L122.071 32.4617C121.608 33.0623 120.921 33.3703 120.151 33.3703C118.581 33.3703 117.415 32.0392 117.415 30.2307Z" fill="#000010"/>
<path d="M135.278 27.143V33.3173H134.732V30.4684H131.458V33.3173H130.904V27.143H131.458V29.8957H134.732V27.143H135.278Z" fill="#000010"/>
<path d="M24.1334 0.103961C24.5201 -0.0183988 24.9256 -0.0329648 25.3178 0.0614144C25.7101 0.155794 26.0784 0.356531 26.3936 0.647763C26.7095 0.936863 26.9653 1.30731 27.1414 1.73082C27.3176 2.15434 27.4094 2.61974 27.4099 3.09151V30.1296C27.4099 32.0045 26.0755 33.2817 24.6505 33.2182C24.175 33.198 23.5992 32.9343 23.2917 32.3943C22.9842 31.8544 23.0421 31.8409 22.7052 30.6407C21.8129 27.4645 20.8162 20.6857 16.0928 16.3786C11.3693 12.0715 5.65574 12.6567 2.74796 12.4266C1.68762 12.3429 1.54407 12.4719 0.994319 12.0955C0.444573 11.7192 0.192522 11.262 0.0603871 10.5662C-0.0842127 9.78671 0.0331765 8.97146 0.387821 8.29212C0.742465 7.61277 1.30669 7.12234 1.96167 6.92412L24.1334 0.103961Z" fill="url(#paint0_linear_1_94)"/>
<path d="M14.4158 19.2737C16.1139 20.8638 17.454 22.9229 18.3178 25.2691C18.848 26.7291 19.5764 28.9823 19.9671 30.4963C20.0882 30.9504 20.1755 31.4161 20.2281 31.8881C20.4116 33.1797 19.6938 34.4223 18.7599 34.4617C18.5597 34.4836 18.358 34.4506 18.1704 34.3653C17.9827 34.28 17.8144 34.1447 17.6784 33.9699C17.3839 33.5445 17.4051 33.4386 17.1629 32.5743C16.5047 30.2249 14.9223 25.6204 12.0806 22.9678C12.052 22.9418 11.8824 22.783 11.853 22.757C11.8237 22.731 11.6516 22.576 11.623 22.55C8.73072 19.9754 4.55626 19.3296 2.46249 19.1708C1.69334 19.112 1.61176 19.1631 1.18926 18.933C1.01151 18.822 0.857926 18.6639 0.740491 18.4713C0.623056 18.2786 0.544948 18.0565 0.512266 17.8223C0.309169 16.7443 1.14685 15.6086 2.25205 15.495C2.65237 15.436 3.05628 15.4183 3.45921 15.4421C4.79932 15.5066 6.83027 15.7703 8.16222 16.0071C10.3041 16.4013 12.3306 17.4122 14.0626 18.9503C14.0626 18.9503 14.2119 19.0793 14.4158 19.2737Z" fill="url(#paint1_linear_1_94)"/>
<defs>
<linearGradient id="paint0_linear_1_94" x1="-0.00415409" y1="17.2345" x2="144.989" y2="17.2345" gradientUnits="userSpaceOnUse">
<stop stop-color="#F5488E"/>
<stop offset="1" stop-color="#A450C7"/>
</linearGradient>
<linearGradient id="paint1_linear_1_94" x1="0.480455" y1="24.9505" x2="20.2575" y2="24.9505" gradientUnits="userSpaceOnUse">
<stop stop-color="#F5488E"/>
<stop offset="1" stop-color="#A450C7"/>
</linearGradient>
</defs>
</svg>
