<svg width="279.361" height="65.071" viewBox="0 0 279.361 65.071" xmlns="http://www.w3.org/2000/svg">
    <g id="svgGroup" strokeLinecap="round" fill-rule="evenodd" font-size="9pt" stroke="#2563EB" strokeWidth="0.25mm" fill="#2563EB" style="stroke:#2563EB;strokeWidth:0.25mm;fill:#2563EB">
        <path d="M 203.49 65.071 L 202.59 65.071 L 172.53 30.781 L 169.74 27.181 L 170.19 35.911 L 170.19 63.811 L 159.12 63.811 L 159.12 0.001 L 160.11 0.001 L 189.72 34.561 L 192.87 38.656 L 192.42 30.061 L 192.42 1.081 L 203.49 1.081 L 203.49 65.071 Z M 241.2 57.961 L 245.79 48.511 A 9.331 9.331 0 0 0 246.529 49.342 Q 247.35 50.171 248.607 51.124 A 31.191 31.191 0 0 0 248.782 51.256 A 20.816 20.816 0 0 0 251.606 53.019 A 25.987 25.987 0 0 0 253.553 53.933 Q 256.275 55.081 259.2 55.081 A 10.127 10.127 0 0 0 262.629 54.515 A 9.099 9.099 0 0 0 265.072 53.191 A 6.12 6.12 0 0 0 267.442 49.19 A 9.296 9.296 0 0 0 267.57 47.611 A 8.266 8.266 0 0 0 267.159 44.945 A 6.826 6.826 0 0 0 264.983 41.828 A 38.839 38.839 0 0 0 262.983 40.292 Q 261.923 39.527 260.663 38.702 A 92.694 92.694 0 0 0 257.94 36.991 Q 254.295 34.786 250.785 32.288 Q 247.275 29.791 244.957 26.168 A 13.993 13.993 0 0 1 243.149 21.78 Q 242.72 19.945 242.652 17.811 A 25.458 25.458 0 0 1 242.64 17.011 A 18.995 18.995 0 0 1 243.533 11.067 A 15.799 15.799 0 0 1 247.387 4.793 A 15.228 15.228 0 0 1 253.977 0.951 Q 256.358 0.238 259.219 0.06 A 31.549 31.549 0 0 1 261.18 0.001 A 32.564 32.564 0 0 1 264.62 0.172 Q 266.292 0.35 267.729 0.713 A 17.104 17.104 0 0 1 268.988 1.081 Q 272.205 2.161 274.207 3.556 A 57.827 57.827 0 0 1 275.145 4.222 Q 276.457 5.176 277.2 5.851 L 272.16 15.031 A 7.177 7.177 0 0 0 271.69 14.437 Q 271.072 13.728 270.045 12.826 A 13.171 13.171 0 0 0 268.161 11.457 A 17.443 17.443 0 0 0 266.4 10.531 A 10.993 10.993 0 0 0 262.593 9.575 A 13.135 13.135 0 0 0 261.63 9.541 A 10.104 10.104 0 0 0 259.53 9.745 Q 258.241 10.019 257.273 10.66 A 5.47 5.47 0 0 0 256.162 11.633 Q 254.34 13.726 254.34 16.561 A 8.057 8.057 0 0 0 254.909 19.634 A 7.474 7.474 0 0 0 257.017 22.501 A 39.55 39.55 0 0 0 259.78 24.652 Q 261.274 25.719 263.017 26.786 A 65.94 65.94 0 0 0 263.52 27.091 A 126.798 126.798 0 0 1 269.038 30.566 A 107.297 107.297 0 0 1 271.35 32.153 A 21.266 21.266 0 0 1 276.582 37.361 A 20.241 20.241 0 0 1 277.155 38.228 Q 279.119 41.374 279.334 46.073 A 25.79 25.79 0 0 1 279.36 47.251 A 21.067 21.067 0 0 1 278.692 52.708 A 14.987 14.987 0 0 1 274.185 60.143 A 17.314 17.314 0 0 1 266.923 63.972 Q 264.294 64.671 261.18 64.78 A 33.357 33.357 0 0 1 260.01 64.801 A 33.544 33.544 0 0 1 254.266 64.332 A 24.601 24.601 0 0 1 248.445 62.596 Q 243.608 60.441 241.306 58.071 A 10.901 10.901 0 0 1 241.2 57.961 Z M 77.13 63.811 L 65.52 63.811 L 65.52 11.251 L 51.03 11.251 L 51.03 1.081 L 91.62 1.081 L 91.62 11.251 L 77.13 11.251 L 77.13 63.811 Z M 12.6 63.811 L 0 63.811 L 26.55 0.001 L 27.45 0.001 L 54.09 63.811 L 41.85 63.811 L 38.34 54.721 L 15.93 54.721 L 12.6 63.811 Z M 115.34 64.174 A 29.802 29.802 0 0 0 122.04 64.891 A 30.152 30.152 0 0 0 127.257 64.457 A 22.245 22.245 0 0 0 136.215 60.863 A 23.221 23.221 0 0 0 141.184 56.196 A 27.547 27.547 0 0 0 145.035 49.546 A 33.392 33.392 0 0 0 145.294 48.9 Q 148.05 41.823 148.05 32.401 A 53.971 53.971 0 0 0 147.449 24.154 A 39.392 39.392 0 0 0 145.125 15.481 A 30.024 30.024 0 0 0 144.087 13.175 A 24.094 24.094 0 0 0 136.373 4.096 A 21.834 21.834 0 0 0 128.354 0.664 A 31.011 31.011 0 0 0 121.77 0.001 A 30.175 30.175 0 0 0 116.296 0.477 A 22.052 22.052 0 0 0 107.572 4.028 A 23.009 23.009 0 0 0 102.631 8.695 A 27.316 27.316 0 0 0 98.82 15.346 A 33.758 33.758 0 0 0 98.719 15.596 Q 97.173 19.48 96.46 24.059 A 54.244 54.244 0 0 0 95.85 32.401 Q 95.85 37.039 96.518 41.11 A 38.191 38.191 0 0 0 98.865 49.546 A 30.211 30.211 0 0 0 100.15 52.269 A 24.044 24.044 0 0 0 107.707 60.863 A 21.946 21.946 0 0 0 115.34 64.174 Z M 229.86 63.811 L 218.34 63.811 L 218.34 1.081 L 229.86 1.081 L 229.86 63.811 Z M 122.04 55.261 A 11.101 11.101 0 0 0 129.998 51.924 A 17.195 17.195 0 0 0 132.007 49.568 A 18.124 18.124 0 0 0 134.409 44.695 Q 136.08 39.655 136.08 32.131 A 53.648 53.648 0 0 0 135.745 25.914 Q 134.951 19.132 132.278 15.098 A 13.454 13.454 0 0 0 128.864 11.491 Q 126.044 9.494 122.277 9.369 A 15.294 15.294 0 0 0 121.77 9.361 Q 115.814 9.361 112.239 14.16 A 15.921 15.921 0 0 0 111.578 15.121 A 19.554 19.554 0 0 0 109.415 19.981 Q 108.006 24.64 107.916 31.308 A 68.049 68.049 0 0 0 107.91 32.221 A 56.633 56.633 0 0 0 108.218 38.345 Q 108.903 44.618 111.11 48.506 A 14.992 14.992 0 0 0 111.803 49.613 A 14.321 14.321 0 0 0 114.917 52.943 A 11.465 11.465 0 0 0 122.04 55.261 Z M 26.91 23.851 L 25.47 28.891 L 19.17 45.991 L 35.01 45.991 L 28.44 28.891 L 26.91 23.851 Z" vector-effect="non-scaling-stroke"/>
    </g>
</svg>